<?xml version="1.0" encoding="UTF-8"?><svg id="medical_alert" xmlns="http://www.w3.org/2000/svg" viewBox="0 0 380 129"><defs><style>.cls-1{fill:#ea4b1b;}.cls-2{fill:#848484;}.cls-3{fill:#ff652f;}.cls-4{fill:none;stroke:#000;stroke-miterlimit:10;stroke-width:.13px;}</style></defs><path class="cls-2" d="m18.76,93.07v15.65h-1.59v-12.52l-6.15,10.53h-.78l-6.15-10.46v12.45h-1.59v-15.65h1.36l6.8,11.61,6.73-11.61h1.36Z"/><path class="cls-2" d="m34.75,101.03c0-4.56,3.49-7.96,8.23-7.96s8.21,3.38,8.21,7.96-3.51,7.96-8.21,7.96-8.23-3.4-8.23-7.96Zm14.78,0c0-3.73-2.8-6.48-6.55-6.48s-6.6,2.75-6.6,6.48,2.82,6.48,6.6,6.48,6.55-2.75,6.55-6.48Z"/><path class="cls-2" d="m79.18,93.07l-6.93,15.65h-1.63l-6.93-15.65h1.79l5.99,13.6,6.04-13.6h1.68Z"/><path class="cls-2" d="m93.18,93.07h1.65v15.65h-1.65v-15.65Z"/><path class="cls-2" d="m124.88,93.07v15.65h-1.36l-10.06-12.7v12.7h-1.65v-15.65h1.36l10.08,12.7v-12.7h1.63Z"/><path class="cls-2" d="m152.88,101.03h1.59v5.97c-1.48,1.32-3.58,1.99-5.75,1.99-4.76,0-8.25-3.38-8.25-7.96s3.49-7.96,8.27-7.96c2.37,0,4.43.76,5.81,2.26l-1.03,1.05c-1.32-1.3-2.88-1.83-4.72-1.83-3.87,0-6.71,2.75-6.71,6.48s2.84,6.48,6.69,6.48c1.5,0,2.88-.34,4.09-1.21v-5.28Z"/><path class="cls-2" d="m185.34,106.96l.65-1.27c1.12,1.1,3.11,1.9,5.17,1.9,2.93,0,4.2-1.23,4.2-2.77,0-4.29-9.64-1.65-9.64-7.45,0-2.3,1.79-4.29,5.77-4.29,1.77,0,3.6.51,4.85,1.39l-.56,1.32c-1.34-.87-2.91-1.3-4.29-1.3-2.86,0-4.14,1.27-4.14,2.84,0,4.29,9.64,1.7,9.64,7.4,0,2.3-1.83,4.27-5.84,4.27-2.35,0-4.65-.83-5.81-2.03Z"/><path class="cls-2" d="m223.39,107.29v1.43h-11.07v-15.65h10.73v1.43h-9.08v5.57h8.09v1.41h-8.09v5.81h9.41Z"/><path class="cls-2" d="m249.85,108.72l-3.58-5.03c-.4.04-.81.07-1.25.07h-4.2v4.96h-1.65v-15.65h5.86c3.98,0,6.4,2.01,6.4,5.37,0,2.46-1.3,4.18-3.58,4.92l3.82,5.37h-1.81Zm-.09-10.29c0-2.5-1.65-3.94-4.79-3.94h-4.16v7.85h4.16c3.13,0,4.79-1.45,4.79-3.91Z"/><path class="cls-2" d="m280.21,93.07l-6.93,15.65h-1.63l-6.93-15.65h1.79l5.99,13.6,6.04-13.6h1.68Z"/><path class="cls-2" d="m294.21,93.07h1.65v15.65h-1.65v-15.65Z"/><path class="cls-2" d="m311.31,101.03c0-4.58,3.49-7.96,8.21-7.96,2.28,0,4.34.76,5.72,2.28l-1.05,1.05c-1.27-1.3-2.84-1.86-4.63-1.86-3.78,0-6.62,2.77-6.62,6.48s2.84,6.48,6.62,6.48c1.79,0,3.35-.56,4.63-1.88l1.05,1.05c-1.39,1.52-3.44,2.3-5.75,2.3-4.7,0-8.18-3.38-8.18-7.96Z"/><path class="cls-2" d="m351.45,107.29v1.43h-11.07v-15.65h10.73v1.43h-9.08v5.57h8.09v1.41h-8.09v5.81h9.41Z"/><path class="cls-2" d="m365.85,106.96l.65-1.27c1.12,1.1,3.11,1.9,5.17,1.9,2.93,0,4.2-1.23,4.2-2.77,0-4.29-9.64-1.65-9.64-7.45,0-2.3,1.79-4.29,5.77-4.29,1.77,0,3.6.51,4.85,1.39l-.56,1.32c-1.34-.87-2.91-1.3-4.29-1.3-2.86,0-4.14,1.27-4.14,2.84,0,4.29,9.64,1.7,9.64,7.4,0,2.3-1.83,4.27-5.84,4.27-2.35,0-4.65-.83-5.81-2.03Z"/><path d="m42.88,22.87v43.96h-6.74l-24.3-29.77v29.77H3.72V22.87h6.74l24.3,29.77v-29.77h8.12Z"/><path d="m89.44,56.66h-22.04l-4.34,10.17h-8.44l19.83-43.96h8.06l19.89,43.96h-8.56l-4.41-10.17Zm-2.71-6.41l-8.31-19.22-8.25,19.22h16.56Z"/><path d="m121.99,29.78h-14.61v-6.91h37.4v6.91h-14.61v37.05h-8.18V29.78Z"/><path d="m158.32,22.87h8.18v43.96h-8.18V22.87Z"/><path d="m272.75,22.87v43.96h-6.74l-24.3-29.77v29.77h-8.12V22.87h6.74l24.3,29.77v-29.77h8.12Z"/><path d="m320,56.66h-22.04l-4.34,10.17h-8.44l19.83-43.96h8.06l19.89,43.96h-8.56l-4.41-10.17Zm-2.71-6.41l-8.31-19.22-8.25,19.22h16.56Z"/><path d="m345.12,22.87h8.18v37.05h23.04v6.91h-31.23V22.87Z"/><circle class="cls-4" cx="201.59" cy="37.75" r="4.16"/><path class="cls-3" d="m201.75,20.01c-9.8,0-19.18,8.12-17.47,20.12,2.38,16.77,17.47,27.38,17.47,27.38,0,0,15.63-10.58,17.27-27.77.94-9.89-7.47-19.72-17.27-19.72Zm-.17,26.41c-4.67,0-8.46-3.79-8.46-8.46s3.79-8.46,8.46-8.46,8.46,3.79,8.46,8.46-3.79,8.46-8.46,8.46Z"/><path class="cls-1" d="m201.59,29.49c-4.67,0-8.46,3.79-8.46,8.46s3.79,8.46,8.46,8.46,8.46-3.79,8.46-8.46-3.79-8.46-8.46-8.46Zm0,12.42c-2.3,0-4.16-1.86-4.16-4.16s1.86-4.16,4.16-4.16,4.16,1.86,4.16,4.16-1.86,4.16-4.16,4.16Z"/></svg>