<?xml version="1.0" encoding="UTF-8"?><svg id="Layer_26" xmlns="http://www.w3.org/2000/svg" viewBox="0 0 380 200"><defs><style>.cls-1{fill:#f0e8d9;}.cls-2{fill:#911015;}.cls-3{fill:#911117;}.cls-4{fill:#900f15;}.cls-5{fill:#910f15;}.cls-6{fill:#911016;}</style></defs><path class="cls-1" d="M2.5,59.26c1.88,.53,3.45,1.69,5.12,2.61,4.93,2.74,9.77,5.64,14.64,8.48,1.83,1.07,3.66,2.14,5.54,3.23v2.24c0,18.26,.01,36.52-.02,54.78,0,1.38,.24,2.23,1.63,3,7.02,3.9,14.01,7.86,20.88,12.03,6.07,3.69,12.36,6.99,18.41,10.71,2.76,1.7,5.62,3.29,8.47,4.83,1.64,.89,2.03,2.09,2.03,3.71,0,4.95,0,9.9,0,14.85,0,3.08,0,6.15,0,9.23,0,.65,.2,1.39-.5,1.83-.73,.45-1.3-.1-1.83-.43-5.72-3.49-11.62-6.69-17.39-10.1-5.2-3.07-10.45-6.06-15.65-9.11-4.06-2.38-8.17-4.7-12.26-7.05-5.35-3.07-10.65-6.23-16.02-9.27-3.87-2.19-7.73-4.4-11.55-6.68-.44-.27-.9-.59-1.48-.55V59.26Z"/><path class="cls-4" d="M82.66,8.53c25.52,14.74,50.88,29.38,76.51,44.18-8.49,4.91-16.82,9.73-25.31,14.64-16.98-9.8-34.01-19.63-51.19-29.55-17.02,9.82-34.05,19.65-51.21,29.55-8.32-4.81-16.68-9.64-25.32-14.63C31.79,37.91,57.18,23.25,82.66,8.53Z"/><path class="cls-1" d="M162.56,147.49c-25.25,14.58-50.57,29.21-76.14,43.98v-7.58c0-6.62,.05-13.25-.04-19.87-.02-1.49,.53-2.18,1.81-2.88,4.65-2.57,9.19-5.32,13.78-7.98,4.02-2.33,8.07-4.61,12.1-6.93,2.88-1.65,5.74-3.33,8.62-4.99,4.14-2.39,8.22-4.89,12.46-7.1,1.76-.91,2.31-1.95,2.31-3.87-.07-18.13-.02-36.26-.08-54.39,0-1.7,.54-2.59,2.04-3.42,5.34-2.95,10.58-6.11,15.86-9.17,2.34-1.36,4.7-2.68,7.28-4.15v88.36Z"/><path class="cls-4" d="M78.96,103.11v50.79c-14.75-8.52-29.26-16.9-43.8-25.3v-50.76c14.71,8.49,29.23,16.87,43.8,25.28Z"/><path class="cls-1" d="M39.14,71.37c2.41-1.45,4.83-2.93,7.29-4.36,5.67-3.31,11.36-6.59,17.05-9.87,4.08-2.35,8.19-4.67,12.28-7.01,1.84-1.05,3.72-2.06,5.5-3.21,.99-.64,1.72-.59,2.72,0,4.98,2.92,10.04,5.71,15.02,8.62,5.21,3.05,10.44,6.06,15.64,9.12,3.2,1.88,6.43,3.72,9.69,5.51,.63,.35,1.37,.58,1.72,1.38-.78,1.13-2.11,1.53-3.23,2.19-5.88,3.48-11.8,6.9-17.72,10.31-4.89,2.81-9.81,5.57-14.71,8.37-2.01,1.15-4.01,2.34-5.98,3.57-.99,.61-1.9,.78-2.98,.16-3.45-2-6.93-3.93-10.39-5.91-3.97-2.28-7.92-4.59-11.89-6.88-4.6-2.66-9.19-5.31-13.79-7.96-1.49-.86-2.99-1.71-4.49-2.57-.63-.36-1.37-.58-1.74-1.47Z"/><path class="cls-4" d="M86.45,103.06c14.55-8.4,29.04-16.77,43.68-25.22v50.76c-14.52,8.38-29,16.74-43.68,25.22v-50.77Z"/><path class="cls-4" d="M336.2,100.93h-8.71c.21-3.54,.41-6.99,.63-10.6h-10.74v10.57h-8.86c.61-8.68,1.3-17.37,1.21-26.24h8.61c-.19,3.22-.39,6.41-.59,9.75h10.56c.37-3.16,.2-6.41,.33-9.77h8.6c-.55,8.79-1.21,17.49-1.03,26.29Z"/><path class="cls-4" d="M202.69,93.5c-1.13,2.44-2.27,4.91-3.43,7.44h-8.98c4.68-8.85,9.31-17.59,13.95-26.37h9.92c3.07,8.79,6.32,17.51,9.66,26.36h-8.73c-.81-2.45-1.62-4.9-2.45-7.42h-9.94Zm6-13.16c-1.27,2.66-2.36,4.95-3.52,7.4,2.09,.02,3.93,.13,5.93-.09-.79-2.4-1.54-4.67-2.4-7.31Z"/><path class="cls-4" d="M251.9,74.72c2.01-.27,19.65-.27,21.58,0,.18,1.72-.19,3.42-.26,5.43h-12.89c-.34,1.45-.33,2.78-.36,4.34h11.06c-.13,2-.25,3.75-.38,5.7h-11.13v5.15c4.23,.24,8.58-.03,13.04-.28-.11,2.02-.22,3.91-.33,5.89h-21.58c.69-8.72,1.29-17.46,1.25-26.21Z"/><path class="cls-4" d="M365.13,90.47c-.42-1.75-.82-3.35-1.24-5.12,.93,0,1.73,.06,2.52-.01,1.65-.16,2.84-1.23,3.07-2.7,.22-1.35-.41-2.49-1.72-2.74-1.49-.29-3.03-.37-4.53,.18-.51,6.96-.56,13.83-.63,20.82h-7.84c.5-8.69,1.1-17.39,1.05-26.08,.49-.49,1.06-.3,1.57-.3,4.41-.02,8.81-.08,13.22,.01,3.56,.07,5.97,2.23,6.71,5.73,1.02,4.88-1.88,9.29-6.77,10.35-1.78,.39-3.54,.63-5.39-.15Z"/><path class="cls-4" d="M227.39,74.6h20.33v5.52h-12.02c-.28,1.63-.22,3.14-.28,4.82h9.96v5.57h-10.32v10.36h-8.82c.77-8.66,1.12-17.37,1.15-26.26Z"/><path class="cls-4" d="M171.27,100.51c-.18-2.2-.35-4.31-.52-6.52,1.5,.42,2.87,.87,4.28,1.17,1.57,.34,3.18,.46,4.75-.05,1.61-.52,1.98-1.66,.81-2.87-1.3-1.34-2.77-2.5-4.16-3.75-.94-.85-1.96-1.63-2.79-2.58-3.07-3.55-2.05-8.45,2.17-10.59,2.6-1.31,5.42-1.4,8.21-1.14,1.63,.15,3.34,.15,5.04,.9,.13,1.96,.27,4,.41,6.1-1.94-.46-3.76-1.11-5.72-1.06-.74,.02-1.47,.08-2.16,.36-1.44,.6-1.73,1.61-.71,2.82,.64,.76,1.44,1.39,2.21,2.03,1.44,1.19,2.95,2.29,4.29,3.61,4.46,4.38,1.7,10.05-2.92,11.66-2.23,.78-4.57,1.02-6.9,.78-2.04-.21-4.11-.26-6.28-.88Z"/><path class="cls-4" d="M286.11,100.5c-.18-2.23-.35-4.34-.53-6.59,2.4,.78,4.65,1.59,7.09,1.49,.74-.03,1.47-.09,2.16-.37,1.36-.54,1.65-1.53,.69-2.67-.64-.76-1.43-1.4-2.17-2.07-1.49-1.33-3.05-2.6-4.5-3.98-3.77-3.59-2.49-9.54,2.72-11.43,2.36-.86,4.85-1,7.3-.71,1.63,.19,3.34,.13,5.01,.91,.13,1.92,.27,3.91,.42,6.07-1.14-.28-2.24-.62-3.37-.82-1.45-.26-2.91-.44-4.35,.09-1.59,.58-1.93,1.64-.85,2.9,.64,.75,1.45,1.38,2.22,2.02,1.38,1.15,2.84,2.21,4.14,3.47,4.84,4.66,1.5,10.49-3.02,11.85-2.2,.66-4.45,.94-6.71,.71-2.04-.21-4.11-.25-6.25-.88Z"/><path class="cls-4" d="M349.82,100.96h-8.77c.53-8.77,1.19-17.46,1.09-26.31h8.62c-.56,8.7-1.04,17.4-.95,26.31Z"/><path class="cls-6" d="M173.74,117.5c-.77,3.41-.37,6.66-.93,9.87-.75,.23-1.52,.21-2.32,0,.37-4.34,.73-8.64,1.1-13.02h3.74c.92,3.1,1.83,6.21,2.81,9.52,1.27-3.29,2.47-6.38,3.68-9.51h3.79v12.9c-.89,.44-1.72,.23-2.58,.21v-10.12c-1.39,3.63-2.62,6.86-3.85,10.07-.87,.17-1.66,.14-2.6,.02-.92-3.2-1.85-6.44-2.86-9.93Z"/><path class="cls-6" d="M232.94,118.2v9.15c-.99,.25-1.77,.16-2.81,.13,.36-4.36,.49-8.66,.59-13.09,1.18-.22,2.29-.1,3.51-.08,1.93,3.14,3.88,6.3,6.07,9.85,.39-3.48,.23-6.56,.44-9.72,.85-.29,1.68-.14,2.66-.14-.22,4.44-.43,8.75-.65,13.09-1.19,.23-2.31,.14-3.42,.09-1.98-3.15-3.93-6.24-5.87-9.33l-.51,.05Z"/><path class="cls-6" d="M196.38,127.53c-.71,.09-1.55-.14-2.39-.36-2.74-.7-4.37-2.43-4.74-5.04-.4-2.81,.87-5.52,3.26-6.78,2.56-1.34,5.24-1.52,7.91-.4,2.36,.99,3.66,2.79,3.68,5.44,.01,2.84-.96,5.11-3.66,6.34-1.22,.56-2.53,.81-4.06,.8Zm.32-2.02c2.68-.03,4.53-1.98,4.53-4.79,0-2.74-1.8-4.5-4.54-4.45-2.67,.05-4.53,2.02-4.53,4.8,0,2.73,1.78,4.46,4.55,4.43Z"/><path class="cls-2" d="M254.53,121.64l.08-1.65h4.89v6.95c-3.42,.73-6.75,1.1-9.97-.38-2.24-1.03-3.36-4.02-2.73-6.72,.79-3.37,3.47-5.39,7.37-5.56,1.6-.07,3.18,.08,4.77,.45,.45,.68,.19,1.38,.26,2.2-1.66-.31-3.12-.78-4.66-.66-2.93,.23-4.89,2.19-4.95,5.01-.05,2.32,1.16,3.85,3.44,4.17,1.18,.17,2.4,.21,3.56-.42,.19-.96,.16-1.94,.13-2.87-.66-.5-1.4-.03-2.18-.52Z"/><path class="cls-6" d="M301.96,121.71c1.02,1.88,2.02,3.74,3.08,5.69-1.12,.18-2.04,.14-3.03,.05-1.07-2.28-2.14-4.55-3.24-6.91,.41-.39,.88-.24,1.3-.25,.7-.02,1.31-.28,1.83-.71,.62-.5,.83-1.21,.7-1.97-.15-.85-.81-1.23-1.58-1.3-.92-.08-1.85-.02-2.89-.02-.39,3.7-.34,7.36-.51,11.08-.89,.26-1.74,.07-2.85,.18,.38-4.43,.53-8.73,.47-13.25,2.47,0,4.85-.11,7.22,.04,1.68,.11,2.64,1.15,2.89,2.6,.3,1.74-.41,3.28-1.93,4.02-.47,.23-1.01,.32-1.47,.74Z"/><path class="cls-5" d="M290,119.99c.18,.65,.15,1.21-.11,1.89h-5.47c-.17,1.2-.36,2.28-.2,3.59h6.34c.31,.75,.22,1.3,0,1.96h-9.41c.37-4.29,.46-8.59,.55-13.02h9.34c.37,.42,.11,1.03,.14,1.83h-6.6c-.06,1.28-.1,2.33-.16,3.5,1.88,.37,3.75-.05,5.56,.25Z"/><path class="cls-5" d="M354.98,116.32h-6.46c-.26,1.19-.17,2.3-.23,3.56h5.51c.29,.71,.07,1.27,.09,2.01h-5.65c-.16,1.23-.3,2.27-.22,3.46,2.12,.38,4.25,.02,6.32,.21,.55,.58,.08,1.16,.28,1.84h-9.68c.51-4.35,.44-8.66,.65-13.04h9.26c.48,.47,.17,1.11,.13,1.96Z"/><path class="cls-6" d="M214.63,127.49h-3.34c-1.5-4.29-3.01-8.61-4.56-13.04,1.02-.31,1.92-.12,2.92-.17,1.14,3.52,2.27,6.99,3.52,10.83,1.75-3.73,3.39-7.23,5.04-10.74,.95-.16,1.87-.12,2.99-.01-2.2,4.4-4.36,8.72-6.56,13.13Z"/><path class="cls-6" d="M312.06,127.49c-1.55-4.44-3.03-8.71-4.55-13.06,1.05-.27,1.96-.16,2.93-.1,1.14,3.51,2.27,7,3.5,10.78,1.75-3.73,3.4-7.25,5.05-10.76,1-.11,1.92-.14,2.97,.04-2.17,4.34-4.31,8.62-6.5,13-1.03,.29-2.16,.1-3.41,.11Z"/><path class="cls-6" d="M341.78,116.96c-1.27-.34-2.38-.78-3.61-.7-3.45,.24-5.65,3.6-4.32,6.76,.69,1.63,2.08,2.35,3.81,2.49,1.22,.1,2.37-.26,3.54-.57,.42,.72,.18,1.34,.02,2.07-1.87,.54-3.72,.7-5.66,.26-3.44-.78-4.97-3.21-5-5.87-.04-3.34,1.77-5.86,4.88-6.73,2.04-.57,4.07-.58,6.12,.07,.38,.69,.15,1.41,.22,2.22Z"/><path class="cls-6" d="M277.5,114.75c.03,.7,.19,1.22-.1,1.83-.81-.18-1.65-.33-2.5-.31-.86,.03-1.65,.26-2.01,1.06-.37,.82,.32,1.36,.83,1.86,.53,.51,1.12,.95,1.68,1.42,.51,.43,1.06,.82,1.5,1.32,1.71,1.95,1.02,4.37-1.44,5.23-1.91,.67-3.8,.33-5.71-.07-.38-.54-.28-1.13-.25-1.63,.1-.24,.2-.26,.35-.23,.98,.2,1.97,.34,2.98,.28,.82-.05,1.65-.16,1.97-1.06,.29-.84-.3-1.36-.86-1.86-.99-.89-2.04-1.73-2.97-2.68-1.91-1.97-1.27-4.41,1.33-5.31,1.72-.6,3.39-.32,5.2,.15Z"/><path class="cls-6" d="M366.23,114.8c.06,.63,.19,1.15-.07,1.78-.94-.24-1.91-.37-2.89-.28-.71,.07-1.32,.37-1.62,1.01-.35,.75,.21,1.27,.68,1.73,.57,.56,1.21,1.05,1.82,1.57,.5,.43,1.06,.82,1.5,1.32,1.72,1.95,1.05,4.37-1.41,5.24-1.91,.67-3.81,.34-5.7-.06-.5-.51-.16-1.14-.33-1.55,.19-.39,.39-.31,.58-.28,1.05,.22,2.12,.35,3.18,.21,.64-.08,1.35-.25,1.59-1.01,.23-.75-.18-1.27-.7-1.74-1.05-.93-2.14-1.82-3.11-2.82-1.92-1.96-1.3-4.42,1.3-5.31,1.5-.52,2.6-.48,5.2,.19Z"/><path class="cls-3" d="M223.43,114.32h2.99c-.19,4.38-.37,8.71-.56,13.1-1.01,.17-1.91,.14-2.97,.03,.36-4.38,.52-8.67,.55-13.12Z"/><path class="cls-3" d="M326.65,127.38c-.98,.26-1.88,.09-2.98,.14,.34-4.45,.56-8.73,.53-13.12,1.02-.24,1.93-.11,3-.11-.19,4.39-.37,8.72-.56,13.08Z"/></svg>