<?xml version="1.0" encoding="UTF-8"?><svg id="medical_alert" xmlns="http://www.w3.org/2000/svg" xmlns:xlink="http://www.w3.org/1999/xlink" viewBox="0 0 380 129"><defs><style>.cls-1{fill:url(#linear-gradient-2);}.cls-2{fill:#05406a;}.cls-3{fill:#d51f2d;}.cls-4{fill:url(#linear-gradient-3);}.cls-5{fill:url(#linear-gradient);}</style><linearGradient id="linear-gradient" x1="2.5" y1="74.4" x2="20.62" y2="74.4" gradientUnits="userSpaceOnUse"><stop offset="0" stop-color="#5e0000"/><stop offset="1" stop-color="#7f080a"/></linearGradient><linearGradient id="linear-gradient-2" x1="9.43" y1="53.55" x2="62.8" y2="53.55" gradientUnits="userSpaceOnUse"><stop offset="0" stop-color="#80080a"/><stop offset="1" stop-color="#e62129"/></linearGradient><linearGradient id="linear-gradient-3" x1="223.92" y1="63.53" x2="224.14" y2="63.53" gradientUnits="userSpaceOnUse"><stop offset="0" stop-color="#0c3a6d"/><stop offset="1" stop-color="#053a6a"/></linearGradient></defs><path class="cls-2" d="m155.29,40.51c-1.83-3.59-6.42-4.8-8.5-5.2-6.53-.24-13.05-.47-19.58-.71l-12.72,44.4h10.64l4.18-16.77h4.25l6.5,16.77h11.75l-7.86-18.18c10.25-5.62,14.03-15.03,11.34-20.31Zm-13.7,14.17c-4.61,2.85-9.45,1.67-10.39,1.42,1.26-4.72,2.52-9.45,3.78-14.17,1.11-.13,2.75-.23,4.72,0,2.64.31,4.45.51,5.67,1.89,1.75,1.98,1.1,5.03.94,5.67-.59,1.16-1.97,3.5-4.72,5.2Zm-46.13,6.19l-2.99,10.37h19.13l-3.04,7.76h-29.24l13.06-44.4h29.03l-1.55,7.79h-18.89l-2.83,10.86h14.17l-2.36,7.61h-14.49Zm75.57,0l-2.99,10.37h19.13l-3.04,7.76h-29.24l13.06-44.4h29.03l-1.55,7.79h-18.89l-2.83,10.86h14.17l-2.36,7.61h-14.49Zm158.86-26.26l-30.83,44.4h9.66l7.46-9.79h17.15l.63,9.79h9.39l-3.43-44.4h-10.03Zm2.51,27.63h-12.75l12.75-18.42v18.42Zm45.1,8.75l-3.31,8.01h-26.21l13.22-44.4h9.61l-9.92,36.38h16.61Zm-70.67-36.38l-12.75,44.4h-9.61l12.75-44.4h9.61Zm-18.2,0l-12.54,44.4h-7.67c-.7,0-13.94-28.36-13.94-28.36h-1.42l-6.93,28.36h-9.6l13.02-44.4h7.57l13.37,27.2h1.24l7.26-27.2h9.64Zm-46.76,0l-12.54,44.4h-7.67c-.7,0-13.94-28.36-13.94-28.36h-1.42l-6.93,28.36h-9.6l13.02-44.4h7.57l13.37,27.2h1.24l7.26-27.2h9.64Z"/><g><path class="cls-5" d="m20.62,61.98L2.5,86.81v-18.7l4.48-5.97,13.64-.16Z"/><path class="cls-1" d="m49.02,47.78l4.3-5.77,9.47,11.54-25.82,11.54,3.55-5.51H9.43v-1.14l7.75-10.65h31.85Z"/><path class="cls-4" d="m58.26,28.7c1.77.27,10.69,1.82,16.59,10.21,4.23,6.01,4.61,12.25,4.63,14.64.04,2-.07,9.05-5.06,15.53-5.61,7.27-13.35,8.18-15.06,8.43l-25.39.44-14.63,20.41H5.99v-.89l22.73-31.06h27.19c.39.02,7.24.22,10.76-5.32,1.97-3.11,1.83-6.35,1.73-7.54,0-1.12-.11-4.67-2.59-7.99-2.93-3.93-7.06-4.73-7.99-4.88H22.77l7.75-11.98h27.74Z"/></g><path class="cls-3" d="m223.08,99.37h-3.32v-14.19h2.36v11.68l8.03-11.68h2.83l-9.9,14.19Zm23.37-14.19v14.19h-1.89v-5.62h-4.53l-3.87,5.99-2.03-.12,9.21-14.44h3.1Zm-1.89,6.68v-4.79h-.22l-3.09,4.79h3.31Zm15.71-3.61l3.19,11.12h2.14l4.21-13.88-1.81-.08-3.45,10.9-3.19-11.14h-2l-5.12,14.17,2,.28,4.03-11.38Zm62.34,0l3.19,11.12h2.14l4.21-13.88-1.81-.08-3.45,10.9-3.19-11.14h-2l-4.89,14.29,1.78.16,4.03-11.38Zm-28.58,9.23h-6.2l3.71-12.22-1.81-.08-4.45,14.19h8.75v-1.89Zm15.69-11.97l-1.8-.1-4.52,14.1,1.8.1,4.52-14.1Zm39.2,11.97h-8.96l4.04-10.65h6.82l.94-1.89h-9.07l-5.47,14.43h10.75l.94-1.89Zm1.04-6.83h-8.77l-.94,1.89h8.77l.94-1.89Zm6.84,5.22c.09.51.3,1.37.92,2.21,1.39,1.89,3.64,2.12,4.19,2.18.57.06,2.99.3,4.72-1.42.27-.27,1.52-1.51,1.42-3.31-.09-1.51-1.09-2.51-1.42-2.83-.8-.79-1.73-1.17-2.36-1.42-1.28-.51-1.75-.36-2.36-.94-.13-.13-.85-.85-.78-1.88.08-1.13,1.03-1.76,1.25-1.9.79-.52,1.59-.49,1.89-.47.45.02,1.41.17,2.18.96.61.63.79,1.35.84,1.65l1.75-.44c-.16-.84-.48-1.53-.96-2.08-1.41-1.6-3.55-1.55-4.1-1.53-.66.02-1.91.06-3.02.97-1.37,1.12-2,3.13-1.42,4.72.27.73.72,1.19.94,1.42,1.3,1.3,2.42.78,3.78,1.89.21.17,1.72,1.44,1.42,2.83-.25,1.14-1.57,1.72-2.36,1.89-2.01.42-3.58-1.21-3.78-1.42-.52-.56-.79-1.14-.94-1.52l-1.81.44Zm-144.14-1.79v-3.78s-166.72,1.73-168.61,1.73l168.61,2.05Z"/></svg>