<svg width="33" height="30" viewBox="0 0 33 30" fill="none" xmlns="http://www.w3.org/2000/svg">
<path fill-rule="evenodd" clip-rule="evenodd" d="M9.2472 22.1375C9.17368 22.0279 9.10851 21.9392 9.06256 21.8783C9.03917 21.8479 9.02079 21.8242 9.00868 21.8079C8.99698 21.7908 8.99072 21.7825 8.99072 21.7825C8.99072 21.7825 8.96858 21.82 8.93767 21.8854C8.90634 21.9508 8.86457 22.045 8.82112 22.1621C8.7334 22.3963 8.64108 22.7221 8.61602 23.0833C8.59931 23.2675 8.61978 23.445 8.65529 23.6292C8.69288 23.8121 8.75512 23.9946 8.84827 24.1667C8.87125 24.21 8.89631 24.2521 8.92305 24.2942C8.95103 24.3346 8.98362 24.3721 9.01703 24.4104C9.08387 24.4863 9.15906 24.5579 9.2426 24.6242C9.41011 24.7567 9.61145 24.8679 9.84955 24.9467C10.1511 24.69 10.2176 24.3571 10.167 24.0146C10.142 23.8433 10.0864 23.6688 10.012 23.4988C9.99367 23.4554 9.97362 23.4133 9.95315 23.3708C9.93477 23.3271 9.91639 23.2833 9.89676 23.24C9.85707 23.1538 9.81488 23.0692 9.76977 22.9863C9.68121 22.8213 9.58263 22.6667 9.48864 22.5258C9.40468 22.3783 9.32155 22.2471 9.2472 22.1375Z" fill="white"/>
<path fill-rule="evenodd" clip-rule="evenodd" d="M7.91719 21.4337L7.88711 21.3058C7.84576 21.1358 7.7948 20.9746 7.74091 20.8279C7.71501 20.755 7.68535 20.6867 7.66196 20.6204C7.64108 20.5525 7.61935 20.4896 7.59889 20.4321C7.51701 20.2021 7.44725 20.0587 7.44725 20.0587C7.44725 20.0587 7.33447 20.1854 7.19328 20.395C7.12143 20.5008 7.04332 20.6271 6.96896 20.7704C6.89544 20.9129 6.81816 21.0767 6.77389 21.2404C6.72627 21.4071 6.69285 21.5833 6.68324 21.7642C6.67781 21.8542 6.67906 21.945 6.687 22.0358C6.69118 22.0808 6.69577 22.1275 6.70538 22.1712C6.71541 22.2146 6.72794 22.2583 6.74214 22.3008C6.79853 22.4729 6.88792 22.6396 7.01408 22.7908C7.07841 22.865 7.14691 22.9404 7.23505 23.0021C7.32361 23.0646 7.42219 23.1208 7.53038 23.1712C7.87625 22.9625 8.00073 22.66 8.02454 22.3321C8.04167 22.1637 8.03248 21.99 8.00575 21.8171C7.99154 21.73 7.97358 21.6442 7.95228 21.5596C7.94142 21.5175 7.92972 21.475 7.91719 21.4337Z" fill="white"/>
<path fill-rule="evenodd" clip-rule="evenodd" d="M5.41108 21.0146C5.47833 21.0871 5.55728 21.1558 5.64667 21.22C6.02388 21.0733 6.22355 20.8021 6.32338 20.4962C6.34636 20.4208 6.371 20.3392 6.39022 20.2567C6.4086 20.1742 6.42196 20.09 6.43157 20.0062C6.45037 19.8371 6.44995 19.6687 6.44285 19.5046C6.44661 19.3362 6.43951 19.175 6.42489 19.0267C6.4111 18.8788 6.38729 18.7463 6.38186 18.6271C6.36056 18.3933 6.32839 18.2446 6.32839 18.2446C6.32839 18.2446 6.19138 18.3492 6.00591 18.53C5.91151 18.6204 5.80666 18.7304 5.70056 18.8567C5.64834 18.9196 5.59153 18.9875 5.54433 19.0567C5.49588 19.1262 5.44909 19.1992 5.40565 19.2746C5.31834 19.4258 5.24148 19.5892 5.18676 19.7596C5.15961 19.845 5.13747 19.9312 5.1216 20.0192C5.11157 20.105 5.10907 20.1908 5.11408 20.2775C5.1241 20.4496 5.16546 20.6212 5.2465 20.7846C5.28367 20.8671 5.34215 20.9425 5.41108 21.0146Z" fill="white"/>
<path fill-rule="evenodd" clip-rule="evenodd" d="M4.01393 18.8542C4.06072 18.9333 4.11836 19.0096 4.18687 19.0842C4.58245 19.0017 4.83893 18.7737 5.00936 18.4971C5.03067 18.4625 5.0503 18.4267 5.06993 18.3908C5.0904 18.3542 5.11004 18.3167 5.12925 18.2783C5.16601 18.2021 5.19901 18.1233 5.22783 18.0433C5.28548 17.8842 5.32725 17.7212 5.35691 17.5621C5.39618 17.4004 5.42625 17.2412 5.44588 17.0954C5.45633 17.0221 5.46426 16.9521 5.47053 16.8858C5.47596 16.8204 5.48014 16.7583 5.48933 16.6996C5.51899 16.4671 5.52107 16.3154 5.52107 16.3154C5.52107 16.3154 5.36735 16.3996 5.15056 16.5517C5.04195 16.6275 4.91747 16.72 4.78881 16.8283C4.65848 16.9362 4.53818 17.0558 4.41912 17.19C4.30091 17.3242 4.19105 17.47 4.09915 17.6258C4.05445 17.7033 4.01017 17.7842 3.97968 17.865C3.95044 17.945 3.92705 18.0262 3.91076 18.1096C3.87901 18.275 3.8765 18.4442 3.91452 18.6108C3.92955 18.6954 3.96966 18.7746 4.01393 18.8542Z" fill="white"/>
<path fill-rule="evenodd" clip-rule="evenodd" d="M4.33481 16.2058C4.44174 16.0837 4.54993 15.9421 4.6364 15.7942C4.72371 15.6467 4.79681 15.4917 4.8578 15.34C4.98854 15.0321 5.08754 14.7296 5.14101 14.505C5.20659 14.2783 5.23834 14.1279 5.23834 14.1279C5.23834 14.1279 5.07543 14.1954 4.84067 14.3208C4.72496 14.3837 4.58461 14.4621 4.44801 14.5521C4.31016 14.6429 4.16688 14.7471 4.02862 14.8637C3.75209 15.0967 3.48725 15.3808 3.36528 15.69C3.30053 15.8454 3.26335 16.0079 3.26417 16.1717C3.26878 16.335 3.32517 16.4992 3.42334 16.6596C3.81767 16.6342 4.11174 16.4512 4.33481 16.2058Z" fill="white"/>
<path fill-rule="evenodd" clip-rule="evenodd" d="M3.81767 14.1117C3.88116 14.0579 3.94215 13.9992 3.9998 13.9367C4.05911 13.875 4.11759 13.8088 4.17148 13.7413C4.27967 13.6054 4.37616 13.46 4.45929 13.3154C4.50148 13.2429 4.53949 13.1717 4.57667 13.0996C4.61552 13.0258 4.65186 12.9538 4.68528 12.8825C4.75128 12.7429 4.806 12.6113 4.84986 12.4983C4.93424 12.2721 4.98353 12.1246 4.98353 12.1246C4.98353 12.1246 4.81728 12.1808 4.57834 12.29C4.34108 12.4 4.02778 12.5613 3.72786 12.7692C3.57832 12.8733 3.43044 12.9888 3.29928 13.1133C3.17187 13.2371 3.05867 13.3721 2.97053 13.515C2.88323 13.6588 2.81848 13.81 2.79592 13.9679C2.77796 14.1254 2.79718 14.2888 2.8636 14.4538C3.24539 14.4721 3.55952 14.3275 3.81767 14.1117Z" fill="white"/>
<path fill-rule="evenodd" clip-rule="evenodd" d="M2.69604 12.1054C3.06071 12.1504 3.38069 12.0329 3.6543 11.8383C3.79131 11.7413 3.91579 11.6246 4.03108 11.4983C4.15055 11.3733 4.25874 11.2396 4.35482 11.1046C4.45298 10.9708 4.53193 10.8325 4.61338 10.71C4.69317 10.5858 4.76042 10.4704 4.81431 10.3708C4.86819 10.2717 4.90913 10.1883 4.93754 10.13C4.96636 10.0729 4.98307 10.0404 4.98307 10.0404C4.98307 10.0404 4.94297 10.0504 4.86945 10.0692C4.79635 10.0875 4.69651 10.1183 4.57663 10.1588C4.33644 10.2413 4.0173 10.3675 3.70526 10.5413C3.62673 10.5846 3.54903 10.6313 3.47301 10.6804C3.39865 10.7304 3.32847 10.7833 3.25997 10.8396C3.12337 10.9508 2.99973 11.0733 2.89947 11.2054C2.69312 11.4696 2.61041 11.7775 2.69604 12.1054Z" fill="white"/>
<path fill-rule="evenodd" clip-rule="evenodd" d="M3.91736 9.35542C4.19431 9.19333 4.46416 8.96917 4.68138 8.74083C4.7361 8.68458 4.78622 8.62708 4.83677 8.57042C4.89024 8.51667 4.93995 8.4625 4.98757 8.41C5.08114 8.30583 5.16134 8.20708 5.22692 8.1225C5.29 8.0375 5.34722 7.96958 5.38733 7.92167C5.42492 7.87333 5.44664 7.84583 5.44664 7.84583C5.44664 7.84583 5.28373 7.85958 5.03519 7.90458C4.78748 7.94833 4.4721 8.03083 4.14502 8.16C3.9842 8.22417 3.81836 8.30042 3.66924 8.39042C3.52429 8.48167 3.38895 8.58583 3.27533 8.70208C3.21852 8.76042 3.16672 8.82167 3.1216 8.88583C3.07649 8.94917 3.03764 9.01625 3.01467 9.08667C2.96245 9.22708 2.94365 9.37875 2.96746 9.53708C3.31292 9.60417 3.63415 9.51542 3.91736 9.35542Z" fill="white"/>
<path fill-rule="evenodd" clip-rule="evenodd" d="M6.16593 5.9775C6.04479 5.98 5.90026 5.98791 5.74361 6.00291C5.58529 6.01833 5.42698 6.045 5.25822 6.08166C5.09113 6.11791 4.9207 6.16583 4.75653 6.2275C4.67424 6.25875 4.59362 6.29208 4.51593 6.33C4.43907 6.36791 4.37098 6.41125 4.30498 6.45791C4.04348 6.64375 3.83128 6.88625 3.82251 7.195C4.1358 7.30625 4.45536 7.26666 4.75528 7.16C5.07024 7.05708 5.36181 6.88416 5.61829 6.70583C5.89399 6.53333 6.11622 6.34916 6.28665 6.21125C6.46334 6.07541 6.56736 5.98041 6.56736 5.98041C6.56736 5.98041 6.41029 5.97041 6.16593 5.9775Z" fill="white"/>
<path fill-rule="evenodd" clip-rule="evenodd" d="M7.72538 4.17792C7.48853 4.1575 7.16271 4.1425 6.83146 4.17334C6.49728 4.2025 6.13637 4.26959 5.83352 4.40584C5.5432 4.54625 5.2955 4.74917 5.19482 5.0325C5.3285 5.10917 5.47261 5.14959 5.62174 5.16459C5.7742 5.18042 5.93377 5.17042 6.09293 5.1425C6.25208 5.115 6.41248 5.07042 6.56787 5.01459C6.72368 4.95834 6.87198 4.89209 7.02653 4.82542C7.3298 4.69084 7.58837 4.53792 7.78637 4.42167C7.98813 4.30709 8.11177 4.22375 8.11177 4.22375C8.11177 4.22375 7.96139 4.19834 7.72538 4.17792Z" fill="white"/>
<path fill-rule="evenodd" clip-rule="evenodd" d="M7.49481 2.51625C7.20992 2.65167 6.96555 2.84417 6.86279 3.11834C7.35946 3.41709 8.07084 3.19459 8.63936 2.91292C8.93135 2.77292 9.20036 2.61834 9.38917 2.49625C9.58007 2.375 9.6962 2.28709 9.6962 2.28709C9.6962 2.28709 9.11557 2.20875 8.45807 2.27709C8.13058 2.31167 7.77844 2.37959 7.49481 2.51625Z" fill="white"/>
<path fill-rule="evenodd" clip-rule="evenodd" d="M23.0047 24.9475C23.2424 24.8683 23.4438 24.7567 23.6117 24.6242C23.6948 24.5579 23.77 24.4863 23.8372 24.4104C23.8702 24.3725 23.9028 24.3346 23.9308 24.2942C23.958 24.2521 23.9826 24.21 24.0064 24.1667C24.0996 23.9946 24.161 23.8121 24.199 23.6296C24.2345 23.4454 24.2554 23.2675 24.2378 23.0833C24.2136 22.7221 24.12 22.3963 24.0332 22.1625C23.9893 22.045 23.9471 21.9508 23.917 21.8854C23.8849 21.82 23.8631 21.7825 23.8631 21.7825C23.8631 21.7825 23.8573 21.7908 23.8452 21.8083C23.8335 21.8242 23.8151 21.8479 23.7913 21.8783C23.7458 21.9392 23.6806 22.0279 23.6071 22.1375C23.5327 22.2471 23.4496 22.3783 23.3656 22.5258C23.2717 22.6667 23.1731 22.8213 23.0841 22.9863C23.0394 23.0692 22.9964 23.1542 22.9571 23.2404C22.9379 23.2838 22.9183 23.3271 22.9003 23.3708C22.8807 23.4133 22.8598 23.4558 22.8414 23.4988C22.7675 23.6692 22.7127 23.8433 22.6864 24.0146C22.6371 24.3571 22.7031 24.69 23.0047 24.9475Z" fill="white"/>
<path fill-rule="evenodd" clip-rule="evenodd" d="M25.6614 20.395C25.5189 20.1854 25.4066 20.0592 25.4066 20.0592C25.4066 20.0592 25.3368 20.2021 25.2553 20.4321C25.2345 20.4896 25.2132 20.5525 25.1923 20.6204C25.1689 20.6871 25.1384 20.755 25.1129 20.8283C25.0594 20.9746 25.0081 21.1358 24.9663 21.3058L24.9362 21.4338C24.9241 21.4754 24.9128 21.5175 24.9015 21.5596C24.8802 21.6442 24.8623 21.73 24.8489 21.8171C24.8213 21.99 24.8117 22.1637 24.8289 22.3321C24.8531 22.66 24.9776 22.9625 25.3239 23.1712C25.432 23.1212 25.5302 23.0646 25.6188 23.0021C25.7077 22.9404 25.7754 22.8654 25.8393 22.7912C25.9663 22.6396 26.0553 22.4733 26.1121 22.3008C26.1259 22.2583 26.1388 22.2146 26.1489 22.1712C26.158 22.1275 26.1626 22.0808 26.1668 22.0358C26.1752 21.945 26.176 21.8542 26.171 21.7642C26.1614 21.5833 26.128 21.4071 26.0803 21.2404C26.0357 21.0767 25.9588 20.9129 25.8853 20.7704C25.8101 20.6271 25.732 20.5008 25.6614 20.395Z" fill="white"/>
<path fill-rule="evenodd" clip-rule="evenodd" d="M27.4481 19.275C27.4043 19.1992 27.3575 19.1262 27.3099 19.0567C27.2618 18.9875 27.2058 18.9196 27.1541 18.8567C27.0475 18.7304 26.9423 18.6204 26.8487 18.53C26.6628 18.3492 26.5245 18.2446 26.5245 18.2446C26.5245 18.2446 26.4941 18.3933 26.4719 18.6271C26.4665 18.7467 26.4418 18.8788 26.4293 19.0267C26.4151 19.175 26.4072 19.3362 26.4105 19.5046C26.4042 19.6687 26.4034 19.8371 26.4222 20.0062C26.4322 20.09 26.4456 20.1742 26.464 20.2567C26.4832 20.34 26.5074 20.4208 26.5304 20.4962C26.6306 20.8021 26.8299 21.0733 27.2071 21.22C27.2973 21.1558 27.3754 21.0875 27.4435 21.015C27.5112 20.9425 27.5701 20.8671 27.6077 20.7846C27.6892 20.6212 27.7301 20.4496 27.7397 20.2775C27.7447 20.1912 27.7426 20.105 27.7322 20.0196C27.7167 19.9317 27.6946 19.845 27.667 19.7596C27.6123 19.5892 27.5358 19.4258 27.4481 19.275Z" fill="white"/>
<path fill-rule="evenodd" clip-rule="evenodd" d="M27.8445 18.4975C28.015 18.7742 28.2719 19.0021 28.6666 19.0842C28.736 19.01 28.7932 18.9333 28.8396 18.8542C28.8843 18.7746 28.9244 18.6954 28.9402 18.6108C28.977 18.4446 28.9753 18.275 28.9432 18.1096C28.9269 18.0262 28.9039 17.945 28.8747 17.865C28.8433 17.7842 28.7999 17.7033 28.7548 17.6258C28.6633 17.4708 28.5534 17.3242 28.4348 17.1908C28.3153 17.0558 28.1963 16.9362 28.0651 16.8283C27.9369 16.72 27.812 16.6275 27.7034 16.5521C27.487 16.3996 27.3333 16.3154 27.3333 16.3154C27.3333 16.3154 27.3353 16.4671 27.3646 16.6996C27.3742 16.7583 27.3784 16.8204 27.3838 16.8858C27.3901 16.9521 27.3976 17.0221 27.408 17.0954C27.4277 17.2412 27.4582 17.4004 27.4974 17.5625C27.5267 17.7212 27.568 17.8846 27.6257 18.0437C27.6549 18.1237 27.6875 18.2021 27.7255 18.2783C27.7443 18.3167 27.7639 18.3542 27.7848 18.3908C27.804 18.4267 27.8232 18.4629 27.8445 18.4975Z" fill="white"/>
<path fill-rule="evenodd" clip-rule="evenodd" d="M29.5893 16.1717C29.5914 16.0079 29.5538 15.8462 29.4886 15.6908C29.3666 15.3808 29.1014 15.0967 28.8261 14.8637C28.687 14.7471 28.5437 14.6429 28.4063 14.5529C28.2697 14.4621 28.1298 14.3842 28.0136 14.3208C27.7785 14.1954 27.616 14.1279 27.616 14.1279C27.616 14.1279 27.6469 14.2792 27.7133 14.505C27.7668 14.7296 27.8649 15.0321 27.9965 15.34C28.0571 15.4921 28.1306 15.6467 28.2179 15.7942C28.304 15.9421 28.4117 16.0837 28.5191 16.2062C28.7421 16.4512 29.0366 16.6342 29.431 16.6596C29.5287 16.4992 29.5847 16.3354 29.5893 16.1717Z" fill="white"/>
<path fill-rule="evenodd" clip-rule="evenodd" d="M30.058 13.9679C30.0359 13.8104 29.9707 13.6588 29.8834 13.515C29.7957 13.3721 29.6821 13.2375 29.5551 13.1138C29.4244 12.9892 29.2761 12.8733 29.1261 12.7692C28.8262 12.5613 28.5133 12.4 28.2756 12.29C28.0371 12.1808 27.8708 12.1246 27.8708 12.1246C27.8708 12.1246 27.9197 12.2721 28.0045 12.4988C28.048 12.6113 28.1027 12.7429 28.1695 12.8833C28.2021 12.9538 28.2384 13.0263 28.2769 13.0996C28.3149 13.1717 28.3525 13.2429 28.3943 13.3154C28.4778 13.46 28.5739 13.6054 28.6833 13.7413C28.7364 13.8092 28.7948 13.875 28.8546 13.9375C28.9118 13.9992 28.9724 14.0579 29.0367 14.1121C29.2944 14.3275 29.6086 14.4721 29.9904 14.4538C30.0568 14.2888 30.076 14.1254 30.058 13.9679Z" fill="white"/>
<path fill-rule="evenodd" clip-rule="evenodd" d="M29.9544 11.2054C29.8542 11.0733 29.731 10.9508 29.5948 10.8396C29.5259 10.7838 29.4553 10.7304 29.3809 10.6804C29.3049 10.6313 29.2272 10.585 29.1491 10.5421C28.837 10.3675 28.5175 10.2413 28.2773 10.1588C28.1574 10.1183 28.058 10.0875 27.9845 10.0692C27.9109 10.0504 27.8708 10.0404 27.8708 10.0404C27.8708 10.0404 27.8876 10.0729 27.9168 10.13C27.9444 10.1883 27.9857 10.2717 28.0396 10.3708C28.0939 10.4704 28.1607 10.5858 28.2401 10.71C28.3224 10.8325 28.4001 10.9708 28.4987 11.1046C28.5956 11.2396 28.7034 11.3733 28.8228 11.4983C28.9385 11.6246 29.0622 11.7417 29.2005 11.8383C29.4736 12.0338 29.7936 12.1504 30.1587 12.1054C30.2443 11.7775 30.1608 11.4696 29.9544 11.2054Z" fill="white"/>
<path fill-rule="evenodd" clip-rule="evenodd" d="M29.7319 8.88583C29.6872 8.82167 29.6358 8.76042 29.5785 8.70208C29.4649 8.58583 29.33 8.48167 29.1851 8.39042C29.0359 8.30042 28.8697 8.22417 28.7084 8.16C28.3818 8.03125 28.0664 7.94833 27.8187 7.90458C27.5706 7.85958 27.4072 7.84583 27.4072 7.84583C27.4072 7.84583 27.4289 7.87333 27.4665 7.92167C27.5062 7.96958 27.5639 8.0375 27.6269 8.12333C27.6921 8.20792 27.7732 8.30583 27.8667 8.41083C27.9135 8.4625 27.964 8.51708 28.0171 8.57042C28.0676 8.62708 28.1178 8.68458 28.1729 8.74083C28.3901 8.96917 28.66 9.19333 28.9365 9.35583C29.2201 9.51542 29.541 9.60417 29.8872 9.53708C29.9106 9.37875 29.8918 9.22708 29.8396 9.08708C29.8158 9.01625 29.7778 8.94917 29.7319 8.88583Z" fill="white"/>
<path fill-rule="evenodd" clip-rule="evenodd" d="M28.5496 6.45791C28.4828 6.41166 28.4155 6.36791 28.3382 6.33C28.2605 6.29208 28.1795 6.25875 28.0976 6.2275C27.933 6.16583 27.7622 6.11791 27.5955 6.08166C27.4272 6.045 27.2684 6.01833 27.1101 6.00375C26.9535 5.98791 26.8098 5.98041 26.6878 5.9775C26.4439 5.97041 26.2864 5.98041 26.2864 5.98041C26.2864 5.98041 26.3908 6.07583 26.5675 6.21166C26.7375 6.34916 26.9597 6.53333 27.2354 6.70625C27.4919 6.88416 27.7843 7.05708 28.0989 7.16C28.3988 7.26666 28.7179 7.30666 29.0312 7.195C29.0225 6.88625 28.8103 6.64416 28.5496 6.45791Z" fill="white"/>
<path fill-rule="evenodd" clip-rule="evenodd" d="M27.0202 4.40583C26.7169 4.27042 26.3569 4.2025 26.0227 4.17333C25.6914 4.14292 25.3648 4.15792 25.1283 4.17833C24.8927 4.19833 24.7419 4.22458 24.7419 4.22458C24.7419 4.22458 24.8656 4.30708 25.0678 4.42167C25.2662 4.53792 25.5243 4.69083 25.8276 4.82542C25.9817 4.89208 26.1309 4.95875 26.2854 5.01458C26.4412 5.07042 26.6012 5.11542 26.7616 5.1425C26.9199 5.17042 27.0795 5.18042 27.232 5.16458C27.3815 5.14958 27.5252 5.10958 27.6589 5.0325C27.5582 4.74917 27.3101 4.54625 27.0202 4.40583Z" fill="white"/>
<path fill-rule="evenodd" clip-rule="evenodd" d="M24.2149 2.91292C24.7834 3.19459 25.4944 3.41709 25.991 3.11875C25.8883 2.84459 25.6435 2.65167 25.359 2.51625C25.0762 2.37959 24.7237 2.31167 24.3962 2.27709C23.7383 2.20875 23.1572 2.28709 23.1572 2.28709C23.1572 2.28709 23.2734 2.375 23.4647 2.49667C23.6535 2.61834 23.9229 2.77292 24.2149 2.91292Z" fill="white"/>
<path fill-rule="evenodd" clip-rule="evenodd" d="M30.4364 16.9546C30.7961 17.0179 31.1353 16.9196 31.4444 16.7179C31.6127 16.6121 31.7514 16.4775 31.888 16.3271C32.0229 16.1771 32.147 16.0112 32.2581 15.8408C32.4703 15.5013 32.6174 15.1462 32.7214 14.8767C32.8137 14.6087 32.8542 14.4258 32.8542 14.4258C32.8542 14.4258 32.6863 14.5008 32.4415 14.6329C32.3183 14.6983 32.1804 14.7783 32.0255 14.87C31.8705 14.9612 31.7072 15.0646 31.5467 15.1779C31.2251 15.4033 30.9239 15.6662 30.6913 15.9592C30.6804 15.9729 30.672 15.9867 30.6608 16.0012C30.7735 15.4783 30.8667 14.9508 30.9365 14.4208C31.2368 14.4079 31.5 14.2846 31.7276 14.0908C31.7957 14.0321 31.8621 13.9675 31.9235 13.8987C31.9837 13.8292 32.038 13.7554 32.0906 13.6787C32.195 13.5246 32.2857 13.3571 32.3651 13.1867C32.4043 13.1021 32.4407 13.0162 32.4741 12.9325C32.5042 12.8508 32.5326 12.7696 32.5581 12.6912C32.6082 12.5342 32.6483 12.3871 32.6784 12.26C32.7427 12.0075 32.7598 11.8346 32.7598 11.8346C32.7598 11.8346 32.6086 11.9163 32.3855 12.0554C32.1608 12.1938 31.8684 12.3917 31.591 12.6287C31.4523 12.7471 31.3203 12.8742 31.1992 13.0112C31.1478 13.0683 31.1002 13.1262 31.0547 13.1858C31.0806 12.7387 31.0881 12.2904 31.0726 11.8442C31.2869 11.7854 31.4711 11.6671 31.629 11.5083C31.7464 11.3888 31.8517 11.2475 31.939 11.0942C32.0221 10.94 32.0919 10.7737 32.1495 10.6054C32.2059 10.4379 32.2585 10.2704 32.2853 10.1087C32.3141 9.94833 32.3337 9.79708 32.3471 9.6675C32.3609 9.53708 32.3684 9.42875 32.3717 9.35292C32.3738 9.27708 32.3705 9.2325 32.3705 9.2325C32.3705 9.2325 32.3387 9.25625 32.2803 9.29917C32.223 9.3425 32.1382 9.40458 32.0392 9.48208C31.8412 9.63833 31.5843 9.85708 31.3462 10.1083C31.2873 10.1717 31.2297 10.2367 31.1741 10.3038C31.1169 10.37 31.0601 10.4379 31.0083 10.5087C30.9933 10.5275 30.9816 10.5467 30.9669 10.5662C30.9101 10.1383 30.8295 9.71292 30.7243 9.29042C30.9239 9.21542 31.0856 9.08292 31.2138 8.90917C31.4122 8.65333 31.5058 8.31 31.5568 7.96333C31.5685 7.87708 31.5802 7.79083 31.5852 7.705C31.5868 7.62 31.5868 7.53583 31.5843 7.45458C31.5793 7.29167 31.5672 7.13917 31.5534 7.00833C31.5422 6.8775 31.5192 6.76958 31.5012 6.69458C31.4824 6.61917 31.472 6.57583 31.472 6.57583C31.472 6.57583 31.365 6.685 31.218 6.86292C31.071 7.04042 30.8634 7.28833 30.6896 7.56167C30.6002 7.69917 30.5208 7.84208 30.4502 7.98958C30.4222 8.04417 30.398 8.09958 30.375 8.15458C30.1992 7.66792 30.0066 7.21917 29.7957 6.80042C30.0141 6.70375 30.1653 6.53542 30.2593 6.32083C30.3671 6.04958 30.3851 5.70208 30.3458 5.3625C30.2911 5.03042 30.1958 4.69708 30.1002 4.45667C29.9983 4.22042 29.9155 4.065 29.9155 4.065C29.9155 4.065 29.8395 4.18375 29.7418 4.37333C29.6929 4.46833 29.639 4.58042 29.5855 4.70458C29.5333 4.8275 29.4711 4.96792 29.4214 5.11125C29.3704 5.255 29.327 5.40375 29.2986 5.55458C29.2848 5.62917 29.2735 5.705 29.2681 5.77958C29.2664 5.80625 29.2639 5.83417 29.2618 5.86083C28.9548 5.37917 28.6164 4.93042 28.2426 4.495C28.3457 4.44167 28.4305 4.37333 28.494 4.29042C28.5726 4.18792 28.6189 4.065 28.639 3.92875C28.6599 3.79292 28.6549 3.64375 28.6311 3.48917C28.6077 3.33375 28.5671 3.17292 28.5057 3.02417C28.3879 2.72292 28.2338 2.42833 28.0997 2.22C27.9627 2.01458 27.8591 1.88292 27.8591 1.88292C27.8591 1.88292 27.8077 2.00208 27.7497 2.19083C27.6916 2.37958 27.6285 2.63417 27.5876 2.91958C27.5492 3.20333 27.5487 3.50208 27.6273 3.78125C27.6323 3.80083 27.6377 3.82 27.6436 3.83917C27.207 3.38542 26.7287 2.93542 26.2058 2.46375C26.7237 2.1725 26.5834 1.56167 26.2935 1.00792C26.1452 0.735 25.958 0.48625 25.811 0.300833C25.6631 0.117083 25.5533 0 25.5533 0C25.5533 0 25.4079 0.470833 25.4129 1.00542C25.4158 1.27292 25.461 1.5525 25.5708 1.81542C25.5942 1.86833 25.6209 1.91917 25.651 1.96875C25.6502 1.96833 25.6502 1.96833 25.6494 1.9675C25.1727 1.54708 24.3427 1.11167 24.3427 1.11167C27.6452 3.87083 30.167 7.20708 30.543 11.0325C30.6787 12.4217 30.5108 13.8083 30.294 15.1862C30.0501 16.7417 29.657 18.2921 28.8491 19.7337C27.601 21.9625 25.9347 23.7463 23.6685 25.1392C23.6685 25.1392 20.2666 26.8413 16.6211 26.8787V26.8771C16.5338 26.8783 16.4465 26.8779 16.3584 26.8779C16.3162 26.8775 16.2748 26.8779 16.2327 26.8771V26.8775C12.6315 26.8254 9.18528 25.1388 9.18528 25.1388C6.91956 23.7458 5.25327 21.9621 4.0047 19.7337C3.19682 18.2921 2.80375 16.7408 2.5598 15.1862C2.34342 13.8083 2.17466 12.4217 2.31084 11.0325C2.68762 7.20708 5.20857 3.87083 8.51108 1.11167C8.51108 1.11167 7.6819 1.54708 7.20403 1.9675C7.20403 1.96833 7.20361 1.96833 7.20319 1.96833C7.23368 1.91875 7.26042 1.86833 7.28339 1.81542C7.39367 1.5525 7.43837 1.27292 7.44129 1.005C7.44589 0.470833 7.30052 0 7.30052 0C7.30052 0 7.19066 0.117083 7.0432 0.300833C6.89616 0.48625 6.70819 0.735 6.5599 1.0075C6.27042 1.56167 6.13048 2.1725 6.64887 2.46375C6.12505 2.935 5.64676 3.38542 5.21024 3.83875C5.21609 3.82 5.22194 3.80083 5.22653 3.78083C5.30548 3.50208 5.30423 3.20333 5.26622 2.91958C5.2257 2.63417 5.1622 2.37917 5.10414 2.19083C5.04608 2.00208 4.9947 1.8825 4.9947 1.8825C4.9947 1.8825 4.8911 2.01458 4.75451 2.22C4.62042 2.42833 4.46586 2.72292 4.34806 3.02417C4.28708 3.17292 4.24614 3.33375 4.22316 3.48917C4.19935 3.64333 4.19434 3.79208 4.21439 3.92875C4.23528 4.065 4.28123 4.18792 4.36018 4.29C4.42367 4.37333 4.50763 4.44125 4.61165 4.495C4.2382 4.93042 3.89859 5.37917 3.59199 5.86083C3.5899 5.83333 3.58781 5.80625 3.58572 5.77958C3.57987 5.705 3.57027 5.62917 3.55523 5.55458C3.52682 5.40375 3.4838 5.255 3.43284 5.11083C3.38271 4.96792 3.32089 4.8275 3.26825 4.70458C3.2152 4.58042 3.1609 4.46833 3.11203 4.37333C3.0147 4.18375 2.93867 4.065 2.93867 4.065C2.93867 4.065 2.85596 4.22 2.75446 4.45667C2.65838 4.69708 2.56356 5.02958 2.50842 5.3625C2.46957 5.70208 2.48711 6.04958 2.59447 6.32083C2.68887 6.53542 2.83967 6.70375 3.05856 6.8C2.84677 7.21917 2.65504 7.66792 2.47959 8.15458C2.45704 8.09875 2.43156 8.04417 2.40399 7.98917C2.33339 7.84208 2.25403 7.69875 2.16463 7.56167C1.99044 7.28792 1.78284 7.04042 1.63622 6.86292C1.48876 6.685 1.3814 6.57583 1.3814 6.57583C1.3814 6.57583 1.37138 6.61917 1.35258 6.69458C1.33504 6.76958 1.31206 6.8775 1.30037 7.00833C1.28658 7.13875 1.27489 7.29125 1.26987 7.45458C1.26737 7.53583 1.26737 7.62 1.26862 7.705C1.27363 7.79083 1.28491 7.87708 1.29703 7.96333C1.34882 8.31 1.44197 8.6525 1.64039 8.90917C1.76822 9.08292 1.92987 9.21542 2.12996 9.29042C2.02386 9.71292 1.94408 10.1379 1.88685 10.5662C1.87348 10.5467 1.86011 10.5275 1.84591 10.5087C1.7937 10.4379 1.73689 10.37 1.68008 10.3038C1.62494 10.2362 1.56646 10.1717 1.50714 10.1083C1.26987 9.85708 1.01256 9.63833 0.814557 9.48208C0.715975 9.40417 0.630759 9.34208 0.573949 9.29833C0.515468 9.25625 0.482886 9.23208 0.482886 9.23208C0.482886 9.23208 0.479962 9.27708 0.481633 9.35292C0.486228 9.42875 0.492911 9.53708 0.506696 9.66708C0.520063 9.79708 0.539278 9.94833 0.568519 10.1087C0.595253 10.2704 0.648304 10.4379 0.703861 10.6054C0.761924 10.7737 0.832101 10.94 0.915646 11.0942C1.00295 11.2475 1.1078 11.3888 1.22559 11.5083C1.38266 11.6671 1.56729 11.785 1.78116 11.8442C1.76613 12.2904 1.77365 12.7387 1.79954 13.1854C1.75359 13.1263 1.70556 13.0683 1.65501 13.0112C1.53387 12.8742 1.40146 12.7471 1.26319 12.6283C0.98624 12.3917 0.693 12.1938 0.468684 12.0554C0.245203 11.9154 0.0948228 11.8337 0.0948228 11.8337C0.0948228 11.8337 0.111949 12.0075 0.175025 12.26C0.205937 12.3871 0.246038 12.5342 0.296165 12.6908C0.321228 12.7696 0.349215 12.8508 0.380127 12.9325C0.412709 13.0162 0.449886 13.1021 0.489152 13.1867C0.568519 13.3562 0.658747 13.5246 0.763595 13.6787C0.81581 13.7554 0.870114 13.8292 0.92943 13.8979C0.992089 13.9675 1.05767 14.0321 1.12618 14.09C1.35384 14.2846 1.61784 14.4079 1.91734 14.4208C1.98752 14.9504 2.08067 15.4779 2.1922 16.0012C2.1826 15.9867 2.17299 15.9725 2.16296 15.9592C1.93029 15.6662 1.62911 15.4033 1.30705 15.1775C1.14706 15.0646 0.983316 14.9612 0.828759 14.87C0.673367 14.7783 0.536354 14.6979 0.412291 14.6329C0.167089 14.5004 0 14.4258 0 14.4258C0 14.4258 0.0401013 14.6087 0.132 14.8767C0.237266 15.1462 0.383468 15.5004 0.596089 15.8408C0.708038 16.0108 0.831684 16.1771 0.96619 16.3271C1.10237 16.4771 1.24189 16.6121 1.40939 16.7179C1.71851 16.9196 2.05811 17.0179 2.41735 16.9542C2.43406 17.0208 2.45161 17.0867 2.46957 17.1521C2.59363 17.6204 2.74443 18.0829 2.92489 18.5371C2.89189 18.5025 2.8568 18.4683 2.82087 18.4346C2.74694 18.3671 2.66673 18.3029 2.58361 18.2408C2.50006 18.1779 2.42028 18.1171 2.33256 18.0592C2.15878 17.9421 1.97165 17.835 1.78409 17.7383C1.59862 17.6404 1.40354 17.5533 1.23478 17.4746C1.06435 17.3967 0.903114 17.3296 0.765266 17.2742C0.488734 17.1642 0.30243 17.1033 0.30243 17.1033C0.30243 17.1033 0.38138 17.2908 0.524658 17.5621C0.594418 17.6975 0.701772 17.8529 0.812468 18.0162C0.926924 18.1792 1.05308 18.3504 1.19552 18.5137C1.34799 18.6771 1.51215 18.8333 1.68425 18.9712C1.76947 19.0404 1.85677 19.1046 1.94575 19.1625C1.99044 19.1912 2.03556 19.2188 2.08025 19.2446C2.12829 19.27 2.17591 19.2937 2.22311 19.315C2.59071 19.4821 2.96248 19.5329 3.31546 19.4133C3.56859 19.9229 3.86309 20.42 4.20353 20.9017C4.14965 20.8617 4.09367 20.8225 4.03519 20.7862C3.94246 20.7296 3.84471 20.6758 3.74446 20.6254C3.64921 20.5725 3.54896 20.5242 3.4462 20.4771C3.24152 20.3842 3.02514 20.3025 2.81001 20.23C2.70182 20.1942 2.59489 20.1604 2.4892 20.1279C2.38519 20.0971 2.28535 20.0662 2.19011 20.0375C1.99754 19.9808 1.81792 19.9333 1.6642 19.895C1.35551 19.8188 1.15041 19.7812 1.15041 19.7812C1.15041 19.7812 1.27697 19.965 1.48959 20.2267C1.5911 20.3583 1.7348 20.5033 1.89186 20.6554C2.04851 20.8071 2.2227 20.9642 2.40691 21.1125C2.60199 21.2571 2.81168 21.3917 3.02138 21.5058C3.12623 21.5629 3.23233 21.6146 3.33759 21.66C3.44203 21.7062 3.54729 21.745 3.65757 21.7725C4.08239 21.8854 4.47839 21.8762 4.80672 21.6887C5.13839 22.1012 5.48886 22.5171 5.8598 22.9242C5.84476 22.9175 5.82972 22.9108 5.81468 22.9046C5.75954 22.8833 5.70441 22.8642 5.64843 22.8442C5.59287 22.825 5.53982 22.8046 5.48427 22.7862C5.37315 22.7483 5.25911 22.7158 5.14299 22.6846C4.91073 22.6242 4.67013 22.5767 4.43244 22.5379C4.19058 22.5017 3.97128 22.4642 3.75908 22.4379C3.54896 22.4108 3.35389 22.3908 3.18722 22.375C2.85429 22.3454 2.63541 22.3383 2.63541 22.3383C2.63541 22.3383 2.81294 22.5062 3.09949 22.7383C3.17051 22.7962 3.24904 22.8583 3.33258 22.9229C3.4178 22.9862 3.51596 23.0483 3.61538 23.1125C3.81547 23.2408 4.03394 23.3708 4.25992 23.4913C4.31715 23.5204 4.37271 23.5508 4.43202 23.5783C4.49218 23.605 4.55275 23.6304 4.61373 23.655C4.73529 23.7046 4.8581 23.7508 4.97966 23.7904C5.22277 23.8721 5.46296 23.9312 5.68979 23.9596C6.07659 24 6.42581 23.9496 6.69566 23.7858C7.00018 24.0783 7.31681 24.3604 7.64681 24.6262C7.54656 24.6117 7.44505 24.5987 7.34229 24.5887C7.09249 24.5633 6.83016 24.56 6.59081 24.5492C6.10458 24.5342 5.63882 24.5554 5.29378 24.5792C5.12085 24.5908 4.97882 24.6038 4.88108 24.6138C4.78291 24.6233 4.72861 24.6283 4.72861 24.6283C4.72861 24.6283 4.74197 24.6375 4.76704 24.6542C4.79168 24.6717 4.83137 24.6937 4.88108 24.7225C4.97966 24.7808 5.1221 24.8621 5.29671 24.9542C5.4709 25.0475 5.67642 25.1521 5.90073 25.2558C6.13299 25.3521 6.38654 25.4462 6.64511 25.5304C6.77419 25.5717 6.90577 25.6108 7.03527 25.6454C7.10127 25.6633 7.16643 25.6792 7.2316 25.695C7.2976 25.7079 7.36485 25.72 7.43043 25.7304C7.6961 25.7725 7.95342 25.7946 8.19068 25.7879C8.51484 25.7792 8.79763 25.7146 9.0207 25.5808C9.14434 25.6529 9.26924 25.7225 9.39623 25.7887C9.42421 25.8037 9.44677 25.8083 9.46348 25.8054C11.177 26.7462 13.2973 27.325 15.0426 27.5329C13.6449 27.7921 12.0024 28.0779 10.258 28.3429L8.37532 29.94C8.37532 29.94 12.6114 28.5325 16.5627 27.6358C20.5143 28.5325 24.75 29.94 24.75 29.94L22.8673 28.3429C21.0782 28.0713 19.3965 27.7775 17.9754 27.5133C20.1371 27.2679 21.9508 26.635 23.4066 25.8054C23.4216 25.8037 23.4375 25.8 23.458 25.7892C23.585 25.7225 23.7099 25.6529 23.8335 25.5808C24.0553 25.7146 24.3394 25.7792 24.6631 25.7883C24.9 25.7946 25.1577 25.7729 25.4229 25.7304C25.4885 25.72 25.5562 25.7079 25.6226 25.695C25.6882 25.6792 25.7525 25.6633 25.8181 25.6458C25.9489 25.6108 26.08 25.5717 26.2091 25.5304C26.4673 25.4467 26.7208 25.3521 26.9531 25.2563C27.1774 25.1521 27.3833 25.0475 27.5575 24.9542C27.7317 24.8621 27.8741 24.7812 27.9736 24.7225C28.0228 24.6937 28.0621 24.6717 28.0876 24.6546C28.1122 24.6375 28.1252 24.6283 28.1252 24.6283C28.1252 24.6283 28.0717 24.6238 27.9736 24.6138C27.875 24.6038 27.7325 24.5908 27.56 24.5792C27.2154 24.5554 26.7496 24.5346 26.2634 24.5492C26.0245 24.56 25.7617 24.5633 25.5115 24.5892C25.4092 24.5987 25.3077 24.6117 25.2078 24.6267C25.537 24.3604 25.854 24.0783 26.1581 23.7858C26.4288 23.95 26.7776 24 27.1644 23.9596C27.3913 23.9312 27.6314 23.8721 27.8741 23.7908C27.9961 23.7508 28.1189 23.7046 28.2401 23.655C28.3015 23.6308 28.3616 23.6054 28.4222 23.5788C28.4815 23.5508 28.5371 23.5204 28.5943 23.4913C28.8203 23.3708 29.0383 23.2408 29.2388 23.1129C29.3378 23.0483 29.4356 22.9867 29.5212 22.9229C29.6052 22.8583 29.6837 22.7962 29.7551 22.7388C30.0409 22.5063 30.218 22.3383 30.218 22.3383C30.218 22.3383 29.9999 22.3454 29.6674 22.3754C29.4999 22.3908 29.3048 22.4108 29.0951 22.4379C28.8829 22.4642 28.6636 22.5017 28.4218 22.5379C28.1845 22.5767 27.9435 22.6242 27.7108 22.6846C27.5947 22.7158 27.4806 22.7487 27.3699 22.7862C27.3144 22.8046 27.2613 22.8254 27.2054 22.8446C27.1494 22.8642 27.0943 22.8837 27.0399 22.905C27.0241 22.9108 27.0095 22.9175 26.994 22.9242C27.3654 22.5171 27.7154 22.1017 28.0471 21.6887C28.3758 21.8762 28.7718 21.8854 29.1966 21.7725C29.3069 21.745 29.4114 21.7062 29.517 21.6604C29.6219 21.6146 29.728 21.5629 29.8324 21.5058C30.0421 21.3917 30.2522 21.2571 30.4465 21.1125C30.6307 20.9642 30.8057 20.8075 30.9628 20.6554C31.119 20.5042 31.2627 20.3583 31.3642 20.2267C31.5768 19.9654 31.7034 19.7812 31.7034 19.7812C31.7034 19.7812 31.4983 19.8192 31.1904 19.895C31.0363 19.9333 30.8567 19.9808 30.6645 20.0375C30.5689 20.0662 30.4686 20.0971 30.3646 20.1279C30.2589 20.1604 30.152 20.1942 30.0446 20.2304C29.8287 20.3025 29.6127 20.3846 29.4076 20.4771C29.3048 20.5242 29.205 20.5729 29.1093 20.6254C29.0095 20.6758 28.9113 20.7296 28.8194 20.7862C28.7601 20.8229 28.7046 20.8617 28.6498 20.9017C28.9907 20.4208 29.2856 19.9233 29.5383 19.4133C29.8917 19.5329 30.2635 19.4821 30.6303 19.3154C30.6783 19.2937 30.7259 19.2704 30.774 19.2446C30.8187 19.2188 30.8634 19.1912 30.908 19.1625C30.9974 19.105 31.0847 19.0404 31.1704 18.9712C31.3416 18.8342 31.5062 18.6775 31.6591 18.5137C31.8016 18.3504 31.9273 18.1792 32.0417 18.0162C32.1524 17.8529 32.2602 17.6975 32.3291 17.5621C32.4728 17.2908 32.5518 17.1033 32.5518 17.1033C32.5518 17.1033 32.3655 17.1642 32.0894 17.2742C31.9507 17.3296 31.7899 17.3967 31.6194 17.4746C31.4507 17.5533 31.2556 17.6408 31.0697 17.7383C30.8822 17.8354 30.6954 17.9421 30.5221 18.0592C30.4339 18.1171 30.3537 18.1779 30.271 18.2408C30.1871 18.3033 30.1064 18.3679 30.0329 18.435C29.9966 18.4688 29.9619 18.5025 29.9293 18.5371C30.1094 18.0829 30.261 17.6204 30.3855 17.1521C30.4026 17.0867 30.4197 17.0208 30.4364 16.9546Z" fill="white"/>
</svg>
